<svg xmlns="http://www.w3.org/2000/svg" xmlns:xlink="http://www.w3.org/1999/xlink" viewBox="0 0 133.93 231.68"><defs><style>.cls-1{fill:none;}.cls-2{isolation:isolate;}.cls-3{clip-path:url(#clip-path);}.cls-4{fill:#a0c2be;opacity:0.5;}.cls-10,.cls-15,.cls-21,.cls-22,.cls-23,.cls-25,.cls-4,.cls-6,.cls-9{mix-blend-mode:multiply;}.cls-5{fill:#fff;}.cls-17,.cls-6{fill:#ebe2d0;}.cls-6,.cls-9{opacity:0.55;}.cls-10,.cls-7{fill:#907e6b;}.cls-8{fill:#fcebd4;}.cls-10{opacity:0.35;}.cls-11{fill:#cfb496;}.cls-12{fill:#fad29f;}.cls-13,.cls-15{fill:#242424;}.cls-14{fill:#bb9d77;}.cls-15,.cls-23{opacity:0.3;}.cls-16,.cls-25{fill:#474f59;}.cls-18,.cls-21{fill:#cb7447;}.cls-19{fill:#191918;}.cls-20,.cls-22{fill:#dce3e7;}.cls-21{opacity:0.25;}.cls-24{fill:#f4f7fa;}.cls-25{opacity:0.17;}</style><clipPath id="clip-path" transform="translate(-11.26 -3.72)"><rect class="cls-1" x="-18.79" y="-21" width="181.79" height="273"/></clipPath></defs><title>Untitled-1</title><g class="cls-2"><g id="Layer_2" data-name="Layer 2"><g class="cls-3"><path class="cls-4" d="M57.21,143.21s29.2-5.07,58.33,0C115.54,143.21,93.79,147.52,57.21,143.21Z" transform="translate(-11.26 -3.72)"/><polygon class="cls-5" points="56.69 105.58 56.07 115.6 70.56 116.07 67.83 105 56.69 105.58"/><path class="cls-6" d="M81,116.49a9.83,9.83,0,0,1-3.2.17,4.59,4.59,0,0,1-3.69-2.16A4.63,4.63,0,0,1,72,112.56l-1.11.06c-0.87-.87,0-2.12.86-3.51l-3.84.2-0.61,10,14.49,0.47Z" transform="translate(-11.26 -3.72)"/><path class="cls-7" d="M64.47,143h43.9s-0.85-14.43,2.87-19c0,0-29.47-5.53-50.14-.61C61.09,123.4,65.8,134.45,64.47,143Z" transform="translate(-11.26 -3.72)"/><path class="cls-8" d="M57.81,119.2L60.17,125s15.66-4.3,51.88,0l2.46-5.12S92.92,115.72,57.81,119.2Z" transform="translate(-11.26 -3.72)"/><g class="cls-9"><path class="cls-10" d="M111.23,124l-1.5-.26c-0.07.17-1.82-.54-1.9-0.37a20.91,20.91,0,0,1-3.71,6.19c-6.58,7-18.57,10.94-27.4,5.8a28.42,28.42,0,0,1-11.07-12c-0.52-1.06-3.24-.27-4.57,0,0,0,4.71,11.05,3.38,19.65h43.9S107.52,128.62,111.23,124Z" transform="translate(-11.26 -3.72)"/><path class="cls-11" d="M66.26,118.49c-1.43.12-7,.57-8.44,0.71L60.17,125a42.81,42.81,0,0,1,8.51-1.31A9.19,9.19,0,0,1,66.26,118.49Z" transform="translate(-11.26 -3.72)"/><path class="cls-11" d="M107.9,119a9,9,0,0,1-1.58,5.41c1.76,0.18,3.86.41,5.74,0.63l2.46-5.12S112.2,119.47,107.9,119Z" transform="translate(-11.26 -3.72)"/></g><polygon class="cls-12" points="56.23 81.58 56.69 105.58 67.88 105.19 65.28 92.65 71.11 92.42 62.13 80.76 56.23 81.58"/><polygon class="cls-6" points="58.02 81.57 56.23 81.58 56.69 105.58 60.72 105.38 58.02 81.57"/><path class="cls-13" d="M71.87,93.12c-0.95,0-1.55-1.91-1.67-2.31l0.45-.13c0.25,0.87.84,2.11,1.29,2a0.23,0.23,0,0,0,.15-0.13,3.82,3.82,0,0,0-.31-2.13l0.44-.17c0.07,0.18.66,1.77,0.29,2.51a0.7,0.7,0,0,1-.45.37Z" transform="translate(-11.26 -3.72)"/><path class="cls-13" d="M74.86,92.62c-0.95,0-1.55-1.91-1.67-2.31l0.46-.13c0.25,0.87.84,2.11,1.29,2A0.23,0.23,0,0,0,75.08,92a3.82,3.82,0,0,0-.31-2.12l0.44-.17c0.07,0.18.66,1.77,0.29,2.51a0.7,0.7,0,0,1-.45.37Z" transform="translate(-11.26 -3.72)"/><path class="cls-14" d="M76.94,101.09c-2.47,0-4.48-2.8-4.57-2.93l0.76-.54s2.07,2.87,4.2,2.51L77.49,101A3.13,3.13,0,0,1,76.94,101.09Z" transform="translate(-11.26 -3.72)"/><polygon class="cls-13" points="57.49 85.72 56.85 85.04 58.54 83.45 59.18 84.13 57.49 85.72"/><polygon class="cls-13" points="61.11 83.87 61.4 82.98 63.61 83.69 63.32 84.58 61.11 83.87"/><path class="cls-13" d="M65.73,84.77s9.9,4.33,12.5-2.68c0,0-3.3,2.39-6.14.47S65.76,83.89,65.73,84.77Z" transform="translate(-11.26 -3.72)"/><path class="cls-12" d="M90.5,115.6l-0.12,1.49a13.13,13.13,0,0,1,2.9.69c2,0.72,0-.71,0-0.71s2.7,1,1.63.13a4.86,4.86,0,0,0-1.46-.82,12.53,12.53,0,0,0,1.58.16c0.62,0,.7-0.2-1.44-0.73,0,0,2.84-1.09-1.55-.38A11.76,11.76,0,0,1,90.5,115.6Z" transform="translate(-11.26 -3.72)"/><path class="cls-13" d="M68.94,100.81l-3.66-.93s-0.82-3.79,0-14.87l2.2,0.29L68.7,95.75s-2.3-2.23-2.37.21c0,0.62,1.36,2.27,1.8,2.21Z" transform="translate(-11.26 -3.72)"/><path class="cls-13" d="M92.23,98.55a48.88,48.88,0,0,1,.72,13.52s9.7-1.46,16.28,1.23a16.54,16.54,0,0,0,3.33-14.63S102.29,95.42,92.23,98.55Z" transform="translate(-11.26 -3.72)"/><path class="cls-15" d="M112.56,98.67a37.53,37.53,0,0,0-7-1.3c1.73,2.44,2.09,5,1.73,8.54a21.94,21.94,0,0,1-2.1,6.26,20.08,20.08,0,0,1,4.07,1.13A16.54,16.54,0,0,0,112.56,98.67Z" transform="translate(-11.26 -3.72)"/><path class="cls-16" d="M100.26,110.37a7.46,7.46,0,0,1-.52,6.86l2.15,0.16s2.58-1.89,1.23-7.25Z" transform="translate(-11.26 -3.72)"/><path class="cls-13" d="M96.46,116l-0.16,2.14,9.81,0.74a7.79,7.79,0,0,0,.56-2.5Z" transform="translate(-11.26 -3.72)"/><polygon class="cls-5" points="66.44 107.32 71.32 112.59 79.42 113.59 79.58 111.48 72.14 110.61 67.79 105.38 66.44 107.32"/><ellipse class="cls-13" cx="75.69" cy="112.33" rx="0.37" ry="0.6" transform="translate(-28.77 10.32) rotate(-9.5)"/><ellipse class="cls-13" cx="76.07" cy="114.17" rx="0.37" ry="0.6" transform="translate(-29.18 10.52) rotate(-9.57)"/><path class="cls-12" d="M83.61,115.88v1.49a13.14,13.14,0,0,1,2.94.46c2,0.56-.09-0.7-0.09-0.7s2.77,0.75,1.63,0a4.87,4.87,0,0,0-1.52-.7,12.6,12.6,0,0,0,1.59,0c0.62-.05.68-0.26-1.49-0.62,0,0,2.75-1.31-1.58-.26A11.77,11.77,0,0,1,83.61,115.88Z" transform="translate(-11.26 -3.72)"/><path class="cls-12" d="M68.35,98.4a2.16,2.16,0,0,1-1.72-.64,2.42,2.42,0,0,1-.45-2,1.36,1.36,0,0,1,1.06-1.11c0.78-.16,1.47.85,1.6,1.05l-0.64.41c-0.23-.36-0.3,1.55.31,1.51l0,0.76H68.35Z" transform="translate(-11.26 -3.72)"/><g class="cls-9"><path class="cls-17" d="M68.35,98.4a2.16,2.16,0,0,1-1.72-.64,2.42,2.42,0,0,1-.45-2,1.36,1.36,0,0,1,1.06-1.11c0.78-.16,1.47.85,1.6,1.05l-0.64.41c-0.23-.36-0.3,1.55.31,1.51l0,0.76H68.35Z" transform="translate(-11.26 -3.72)"/></g><path class="cls-5" d="M71.22,113.57l4.18,3.86,8.72,0.39v-2.25l-8-.31L71,110.63v0A2.17,2.17,0,0,0,71.22,113.57Z" transform="translate(-11.26 -3.72)"/><path class="cls-4" d="M14.69,71.16s12.53-4.72,25,0C39.71,71.16,30.38,75.18,14.69,71.16Z" transform="translate(-11.26 -3.72)"/><path class="cls-4" d="M79.08,71.16s28.8-4.72,57.53,0C136.61,71.16,115.16,75.18,79.08,71.16Z" transform="translate(-11.26 -3.72)"/><polygon class="cls-4" points="59.38 36.43 23.43 36.45 20.02 2.69 62.29 2.69 59.38 36.43"/><polygon class="cls-5" points="61.2 33.74 25.25 33.76 21.84 0 64.11 0 61.2 33.74"/><path class="cls-18" d="M63.21,15.58a0.51,0.51,0,0,1-.58.35H46.09a0.51,0.51,0,0,1-.58-0.35h0a0.51,0.51,0,0,1,.58-0.35H62.63a0.51,0.51,0,0,1,.58.35h0Z" transform="translate(-11.26 -3.72)"/><circle class="cls-18" cx="35.67" cy="16.93" r="1.43"/><circle class="cls-18" cx="35.67" cy="22.62" r="1.43"/><circle class="cls-18" cx="35.67" cy="28.34" r="1.43"/><path class="cls-7" d="M62.22,20.45a0.72,0.72,0,0,1-.81.43H52.13a0.72,0.72,0,0,1-.81-0.43h0A0.72,0.72,0,0,1,52.13,20h9.29a0.72,0.72,0,0,1,.81.43h0Z" transform="translate(-11.26 -3.72)"/><path class="cls-7" d="M62.22,26.42a0.72,0.72,0,0,1-.81.43H52.13a0.72,0.72,0,0,1-.81-0.43h0A0.72,0.72,0,0,1,52.13,26h9.29a0.71,0.71,0,0,1,.81.43h0Z" transform="translate(-11.26 -3.72)"/><path class="cls-7" d="M62.22,32.38a0.72,0.72,0,0,1-.81.43H52.13a0.72,0.72,0,0,1-.81-0.43h0a0.72,0.72,0,0,1,.81-0.43h9.29a0.72,0.72,0,0,1,.81.43h0Z" transform="translate(-11.26 -3.72)"/><path class="cls-18" d="M50.79,9.22a2.12,2.12,0,0,0-.84-1.43,1.61,1.61,0,0,0-1.42.06,4.19,4.19,0,0,0-1,.55C47.33,8.22,47,8.46,47,8.93a2.74,2.74,0,0,0-.68,1.73c0,0.79.71,0.79,0.74,0a0.54,0.54,0,0,1,0-.09q0,0.29,0,.58h0c-0.48-.07-0.47,1.16,0,1.22h0c0,0.41,0,.82,0,1.22,0,0.79.74,0.79,0.74,0,0-.42,0-0.83,0-1.25a5.65,5.65,0,0,0,1.56-.6A2.4,2.4,0,0,0,50.79,9.22ZM50,9.82a1.42,1.42,0,0,1-.31.36,3.3,3.3,0,0,1-1,.58,5.49,5.49,0,0,1-1,.34c0-.49,0-1,0-1.47a3.51,3.51,0,0,1,1-.6,1.28,1.28,0,0,1,1-.09,1,1,0,0,1,.38.71A1,1,0,0,0,50,9.82Z" transform="translate(-11.26 -3.72)"/><path class="cls-18" d="M57.76,13.08a1,1,0,0,1-1.41.26,1,1,0,0,1-.25-0.84,2.74,2.74,0,0,0,.14-0.26,0.34,0.34,0,0,0,.29-0.39c-0.31-2-3.58-1.33-3.88.38a1.53,1.53,0,0,0,.4,1.35,1.37,1.37,0,0,0,1.31.23,3,3,0,0,0,1.19-.65,1.59,1.59,0,0,0,.4.67,1.56,1.56,0,0,0,2.24-.3A0.31,0.31,0,0,0,57.76,13.08Zm-3.44.09a0.87,0.87,0,0,1-.82,0,0.91,0.91,0,0,1-.21-0.9c0.24-.91,1.91-1.42,2.47-0.66a2.29,2.29,0,0,0-.25.71A2.67,2.67,0,0,1,54.32,13.17Z" transform="translate(-11.26 -3.72)"/><path class="cls-18" d="M51.87,9.31a29.82,29.82,0,0,0-.93,4.33c-0.08.39,0.67,0.56,0.75,0.16a29.87,29.87,0,0,1,.93-4.33C52.76,9.1,52,8.93,51.87,9.31Z" transform="translate(-11.26 -3.72)"/><path class="cls-18" d="M62.35,13.6a0.88,0.88,0,0,1-.4-0.93,4.38,4.38,0,0,0-.17-1.31,0.29,0.29,0,0,0-.35-0.21,3.35,3.35,0,0,0-1.58.83l-0.16.17A5,5,0,0,1,60.05,11c0.16-.35-0.33-0.65-0.49-0.3A8.56,8.56,0,0,0,59,13.76a0.28,0.28,0,0,0,.56.08,3.24,3.24,0,0,1,.7-1.38,2.47,2.47,0,0,1,1.1-.65c0.16,0.83-.13,2,0.78,2.33S63.42,13.9,62.35,13.6Z" transform="translate(-11.26 -3.72)"/><polygon class="cls-12" points="9.64 6.85 17.57 6.12 26.64 18.01 20.18 18.01 21.43 31.04 10.69 31.04 9.64 6.85"/><polygon class="cls-6" points="13.47 6.34 9.64 6.85 10.69 31.04 14.11 31.04 13.47 6.34"/><path class="cls-12" d="M22.78,22.3s-1.15-4.22-4-1.93,2.19,4.28,3.44,3.86Z" transform="translate(-11.26 -3.72)"/><path class="cls-6" d="M22.78,22.3s-1.15-4.22-4-1.93,2.19,4.28,3.44,3.86Z" transform="translate(-11.26 -3.72)"/><path class="cls-13" d="M20,9.08S28,6.78,33.1,8.66C33.1,8.66,28,14.15,20,9.08Z" transform="translate(-11.26 -3.72)"/><path class="cls-13" d="M18,20.76L19.13,9.08l4,1.29L22.78,20,24,22.91l-1.22,1.38S21.75,18,18,20.76Z" transform="translate(-11.26 -3.72)"/><path class="cls-14" d="M31.75,25a3.34,3.34,0,0,1-2.53.47,4.57,4.57,0,0,1-2.31-2.21l-0.76.35A5.34,5.34,0,0,0,29,26.3a3.3,3.3,0,0,0,1,.15,4,4,0,0,0,1.9-.54Z" transform="translate(-11.26 -3.72)"/><rect class="cls-19" x="23.74" y="13.54" width="1.97" height="0.46" transform="translate(-14.11 16.42) rotate(-42.13)"/><rect class="cls-19" x="28.21" y="11.74" width="0.46" height="2.05" transform="translate(-4.47 31.46) rotate(-70.18)"/><ellipse class="cls-13" cx="15.55" cy="12.41" rx="0.66" ry="1.01"/><ellipse class="cls-13" cx="29.16" cy="15.67" rx="0.66" ry="1.01" transform="translate(-12.39 -1.41) rotate(-4.46)"/><polygon class="cls-20" points="9.11 45.05 22.75 45.05 21.39 30.67 10.63 30.15 9.11 45.05"/><path class="cls-13" d="M20.42,48.8c-0.53,1.34-.83,4,2.36,7.49s-2.65,13.35-2.65,13.35h3.52S30.27,59,25.87,52.25h3.29s4.15,4.31-2.63,17.38h3.29s8-14.36,4.19-20.83H20.42Z" transform="translate(-11.26 -3.72)"/><path class="cls-15" d="M26,52.25a3.69,3.69,0,0,1-.29-3.45H20.42c-0.53,1.34-.83,4,2.36,7.49s-2.65,13.35-2.65,13.35h3.52S30.27,59,25.87,52.25H26Z" transform="translate(-11.26 -3.72)"/><path class="cls-13" d="M26.57,71.16h8.07S33,67.75,27,69.63Z" transform="translate(-11.26 -3.72)"/><path class="cls-13" d="M20,71.16H28s-1.61-3.41-7.65-1.53Z" transform="translate(-11.26 -3.72)"/><path class="cls-15" d="M20,71.16H28s-1.61-3.41-7.65-1.53Z" transform="translate(-11.26 -3.72)"/><polygon class="cls-18" points="0 51.81 8.81 48.99 11.7 58.19 3.12 61.16 0 51.81"/><path class="cls-21" d="M18.43,62.08a10.08,10.08,0,0,1-4.64-7.36l-2.53.81,3.12,9.35,5.72-2A8.44,8.44,0,0,1,18.43,62.08Z" transform="translate(-11.26 -3.72)"/><path class="cls-12" d="M16.63,54c0.29,1.56.69,1.84,0.84,1.77s0.47-.82-0.1-2a3.21,3.21,0,0,0,1.44,1.44c0.38,0.05.12-.54-0.1-0.93a10.71,10.71,0,0,0-.72-1.1,2.12,2.12,0,0,0,1.48.14c0.26-.13-0.44-0.64-1-1s-1.57-1.08-1.66-1a4.52,4.52,0,0,1-1.22.28,5.88,5.88,0,0,0-.79,2.29,3,3,0,0,0,.06,1.5c0.32,0.65.93-.9,0.93-1.34a4.68,4.68,0,0,0,.16,1.91C16.27,56.39,16.74,54.58,16.63,54Z" transform="translate(-11.26 -3.72)"/><polygon class="cls-13" points="19.44 32.02 18.97 31.53 17.35 31.53 16.94 32.18 17.83 34.07 16.68 41.19 18.75 43.24 20.52 41.05 18.63 34.17 19.44 32.02"/><polygon class="cls-20" points="10.63 30.15 0.92 39.7 3.35 48.53 6.71 47.49 3.98 40.26 11.52 34.56 10.63 30.15"/><path class="cls-12" d="M46.5,30.08c1-1.21,1-1.69.85-1.77s-0.94.15-1.47,1.32a3.21,3.21,0,0,0,.21-2c-0.2-.33-0.49.24-0.66,0.66a10.8,10.8,0,0,0-.4,1.25,2.12,2.12,0,0,0-.82-1.24c-0.27-.12-0.23.75-0.11,1.43s0.14,1.9.23,2a4.48,4.48,0,0,1,1,.77,5.87,5.87,0,0,0,2.27-.83,3,3,0,0,0,1.13-1c0.3-.66-1.29-0.16-1.62.12a4.67,4.67,0,0,0,1.38-1.33C48.61,28.84,46.91,29.62,46.5,30.08Z" transform="translate(-11.26 -3.72)"/><path class="cls-22" d="M21.88,33.87h0l-0.95.93a3.55,3.55,0,0,1,.92,3.46,3.27,3.27,0,0,1-.52,1s0,0,0,0l-1,9.48h2.81L24.5,34Z" transform="translate(-11.26 -3.72)"/><polygon class="cls-20" points="19.51 33.6 21.41 30.82 27.55 35.39 32.76 27.46 35.12 28.79 28.66 39.68 19.51 33.6"/><polygon class="cls-12" points="86.49 8.97 79.81 21.9 85.03 21.9 82.63 33.69 93.16 33.69 95.98 7.16 86.49 8.97"/><polygon class="cls-6" points="93.1 8.97 88.54 33.69 93.16 33.69 95.98 6.79 93.1 8.97"/><path class="cls-13" d="M108.38,8.94L94.2,9.67S98.58,20.41,108.38,8.94Z" transform="translate(-11.26 -3.72)"/><path class="cls-14" d="M95.3,30.91V30.08c4,0,4-3,4-3.1h0.83S100.09,30.88,95.3,30.91Z" transform="translate(-11.26 -3.72)"/><path class="cls-13" d="M97.27,21.26a1,1,0,0,1-.9-0.6,3.78,3.78,0,0,1,.39-2.45l0.68,0.32a3.13,3.13,0,0,0-.37,1.83,0.22,0.22,0,0,0,.15.13,0.22,0.22,0,0,0,.2,0,4.21,4.21,0,0,0,1.16-2l0.72,0.22c-0.06.2-.63,2-1.53,2.47A1,1,0,0,1,97.27,21.26Z" transform="translate(-11.26 -3.72)"/><path class="cls-13" d="M100.56,21.26a1,1,0,0,1-.9-0.6,3.78,3.78,0,0,1,.39-2.45l0.68,0.32a3.13,3.13,0,0,0-.37,1.83,0.22,0.22,0,0,0,.15.13,0.22,0.22,0,0,0,.2,0,4.21,4.21,0,0,0,1.16-2l0.72,0.22c-0.06.2-.63,2-1.53,2.47A1,1,0,0,1,100.56,21.26Z" transform="translate(-11.26 -3.72)"/><polygon class="cls-13" points="86.3 12.92 86.05 12.12 87.99 11.49 88.25 12.29 86.3 12.92"/><polygon class="cls-5" points="93.68 42.83 93.31 32.26 83 31.87 80.33 42.83 93.68 42.83"/><path class="cls-6" d="M104.57,36l-2.62-.11c-0.22,3.39-2.07,6.62-5.61,7.44-0.72.17-3.25,0.29-4.06,0.4l-0.69,2.84h13.35Z" transform="translate(-11.26 -3.72)"/><polygon class="cls-13" points="89.81 12.2 90.25 11.49 91.98 12.58 91.54 13.29 89.81 12.2"/><polygon class="cls-13" points="94.31 7.87 92.85 19.3 93.81 20.87 93.58 23.55 96.39 22.63 98.31 5.22 94.31 7.87"/><path class="cls-12" d="M129.45,23L129,13.21l-6.67-.52-5.94,12.25H120s-0.35,4,1.28,6.48h0l-0.57,5.13,6.42,1.25,0.44-6C129.56,28.86,129.45,23,129.45,23Z" transform="translate(-11.26 -3.72)"/><path class="cls-6" d="M129.45,23L129,13.21l-1.43-.11-3.55,24.1,3,0.59,0.44-6C129.56,28.86,129.45,23,129.45,23Z" transform="translate(-11.26 -3.72)"/><ellipse class="cls-13" cx="99.62" cy="38.09" rx="0.59" ry="0.42" transform="translate(35.54 127.03) rotate(-81.24)"/><ellipse class="cls-13" cx="99.22" cy="40.71" rx="0.6" ry="0.42" transform="translate(32.62 128.85) rotate(-81.24)"/><path class="cls-13" d="M122,20a0.76,0.76,0,0,1-.59-0.27c-0.49-.56-0.19-1.88-0.09-2.27l0.73,0.19a2.62,2.62,0,0,0-.06,1.6c0.51,0,.78-1.07.83-1.53l0.75,0.08c0,0.21-.25,2.08-1.46,2.2H122Z" transform="translate(-11.26 -3.72)"/><path class="cls-13" d="M125,20.15a0.76,0.76,0,0,1-.59-0.27c-0.49-.56-0.19-1.88-0.09-2.27l0.73,0.19a2.64,2.64,0,0,0-.06,1.6c0.51,0,.78-1.07.83-1.53l0.75,0.08c0,0.21-.26,2.08-1.46,2.2H125Z" transform="translate(-11.26 -3.72)"/><path class="cls-14" d="M120.17,28.29l-0.23-.8A4.22,4.22,0,0,0,122.88,24l0.83,0.08A5.06,5.06,0,0,1,120.17,28.29Z" transform="translate(-11.26 -3.72)"/><polygon class="cls-13" points="111.76 11.9 111.59 11.09 113.34 10.72 113.51 11.54 111.76 11.9"/><rect class="cls-13" x="126.66" y="14.32" width="0.84" height="1.79" transform="translate(41.46 115.66) rotate(-61.3)"/><polygon class="cls-18" points="108.68 33.69 106.62 42.14 117.82 43.39 116.59 34.35 108.68 33.69"/><path class="cls-21" d="M127.85,38.07h-0.15a7.18,7.18,0,0,1-5.19,5.31,9.61,9.61,0,0,1-4.11.33l-0.53,2.16,11.2,1.25Z" transform="translate(-11.26 -3.72)"/><path class="cls-18" d="M119.4,37.41c-0.1.17-6,7.89-6,7.89l6.22,0.14,0.33-1.6-3.52.1,3.82-5.35Z" transform="translate(-11.26 -3.72)"/><path class="cls-18" d="M127.77,37.8h0l4.35,9.11-6.4-1,0.14-1.3,4,0.54-2.56-4.76A2.06,2.06,0,0,1,127.77,37.8Z" transform="translate(-11.26 -3.72)"/><path class="cls-12" d="M103.76,26.14l-0.53-.75c-0.14-1.69-.27-2.76-0.27-2.76a3.89,3.89,0,0,1,2.29-.88c1.78,0.18,1.38,1.91.94,2.49A5.58,5.58,0,0,1,103.76,26.14Z" transform="translate(-11.26 -3.72)"/><g class="cls-9"><path class="cls-17" d="M103.76,26.14l-0.53-.75c-0.14-1.69-.27-2.76-0.27-2.76a3.89,3.89,0,0,1,2.29-.88c1.78,0.18,1.38,1.91.94,2.49A5.58,5.58,0,0,1,103.76,26.14Z" transform="translate(-11.26 -3.72)"/></g><path class="cls-7" d="M86.9,70.68h44.74s-0.87-14.7,2.92-19.4c0,0-30-5.63-51.1-.62C83.46,50.65,88.26,61.92,86.9,70.68Z" transform="translate(-11.26 -3.72)"/><path class="cls-8" d="M80.12,46.38l2.4,5.94s16-4.38,52.87,0l2.5-5.21S115.89,42.83,80.12,46.38Z" transform="translate(-11.26 -3.72)"/><g class="cls-9"><path class="cls-10" d="M134.56,51.28L133,51c-0.07.17-1.86-.55-1.93-0.38a21.29,21.29,0,0,1-3.78,6.3c-6.7,7.14-21,10.82-30,5.58-4.86-2.83-6.72-6.88-9.19-11.92-0.53-1.08-3.3-.27-4.65,0,0,0,4.8,11.26,3.44,20h44.74S130.77,56,134.56,51.28Z" transform="translate(-11.26 -3.72)"/><path class="cls-11" d="M88.73,45.65c-1.45.12-7.1,0.58-8.61,0.73l2.4,5.94A43.61,43.61,0,0,1,91.2,51,9.37,9.37,0,0,1,88.73,45.65Z" transform="translate(-11.26 -3.72)"/><path class="cls-11" d="M131.16,46.17a9.15,9.15,0,0,1-1.62,5.52c1.79,0.18,3.94.41,5.85,0.64l2.5-5.21S135.55,46.66,131.16,46.17Z" transform="translate(-11.26 -3.72)"/></g><path class="cls-16" d="M120.74,35.78s-3.7,2.5-2,4.52c0,0,1.08.66,2.31-1.39,0,0-.78,2.3.36,2.4s1.7-1.81,1.7-1.81-0.66,2.52,1,2.41c0,0,.86-0.15,1.06-2.3,0,0-.18,2.91,1.63,2.31,0,0,.94-0.39.38-2.48,0,0,1.11,2.22,2.33,1.22,0,0,1.74-1.29-2.25-4.52Z" transform="translate(-11.26 -3.72)"/><ellipse class="cls-5" cx="109.57" cy="32.76" rx="0.51" ry="0.41"/><ellipse class="cls-5" cx="110.79" cy="33.21" rx="0.56" ry="0.48"/><ellipse class="cls-5" cx="123.29" cy="37.29" rx="0.53" ry="0.45" transform="translate(-12.49 0.62) rotate(-2.01)"/><ellipse class="cls-5" cx="124.61" cy="37.41" rx="0.54" ry="0.48" transform="translate(-12.49 0.66) rotate(-2)"/><ellipse class="cls-5" cx="125.92" cy="37.29" rx="0.52" ry="0.48" transform="translate(-12.47 0.64) rotate(-1.97)"/><ellipse class="cls-5" cx="127.27" cy="37" rx="0.52" ry="0.45" transform="translate(-12.48 0.76) rotate(-2.01)"/><path class="cls-13" d="M132.13,7.8a29.56,29.56,0,0,1-6.19,3.76,2.34,2.34,0,0,0,.28-2.76,3.07,3.07,0,0,0-4.12-1.59A3.76,3.76,0,0,0,120,12.1a2.73,2.73,0,0,0,1.56,1.64,5.39,5.39,0,0,0,2.12.37,17,17,0,0,0,4.87-.91c0.21,2.32.69,10.05-1.82,12,0,0,3.46,3.05,0,2.44,0,0,4.89,6.55,7-1.54S129.28,11.13,132.13,7.8Z" transform="translate(-11.26 -3.72)"/><circle class="cls-5" cx="116.86" cy="22.6" r="0.96"/><path class="cls-12" d="M96.44,45.3c0.94,0,1.28-.1,1.27-0.22s-0.3-.33-1.36-0.37a2.35,2.35,0,0,0,1.38-.56c0.14-.24-0.33-0.24-0.65-0.2a7.71,7.71,0,0,0-.95.17,1.55,1.55,0,0,0,.52-1c0-.21-0.56.11-1,0.42a4,4,0,0,1-1,.5,12.55,12.55,0,0,1-.47,1.23A17.45,17.45,0,0,1,96.44,45.3Z" transform="translate(-11.26 -3.72)"/><path class="cls-12" d="M99.55,45.12c-0.93,0-1.28-.07-1.28-0.19s0.29-.33,1.35-0.4A2.34,2.34,0,0,1,98.24,44c-0.15-.24.32-0.24,0.65-0.21a7.94,7.94,0,0,1,.95.15A1.54,1.54,0,0,1,99.29,43c0-.21.56,0.1,1,0.4a4.07,4.07,0,0,0,1,.48,12.87,12.87,0,0,0,.49,1.22A17.89,17.89,0,0,0,99.55,45.12Z" transform="translate(-11.26 -3.72)"/><path class="cls-12" d="M122.24,44.1a8,8,0,0,0-1,.09,1.54,1.54,0,0,0,.59-0.91c0-.21-0.57.07-1,0.34a4.07,4.07,0,0,1-1,.42c0,0.14-.35,1.18-0.35,1.18,0.4,0,1.25.06,2,.16,0.93,0.07,1.28,0,1.29-.12s-0.27-.35-1.33-0.48a2.34,2.34,0,0,0,1.42-.45C123,44.12,122.57,44.08,122.24,44.1Z" transform="translate(-11.26 -3.72)"/><path class="cls-12" d="M124,45.56c-0.93-.08-1.19-0.16-1.18-0.28s0.33-.3,1.39-0.25a2.34,2.34,0,0,1-1.33-.67c-0.12-.25.34-0.21,0.67-0.14a8,8,0,0,1,.93.25,1.55,1.55,0,0,1-.44-1c0-.21.55,0.16,0.92,0.5a4,4,0,0,0,.93.58c0,0.22-.08.76-0.08,1.11C125.78,45.65,124.86,45.59,124,45.56Z" transform="translate(-11.26 -3.72)"/><polygon class="cls-5" points="83 31.87 74.98 42.14 82.94 41.72 83.6 39.98 78.81 40.26 83.6 35.39 83 31.87"/><path class="cls-5" d="M101.18,43.78l0.57,1.53h8.62L104.57,36,103.78,37a1.83,1.83,0,0,0,0,2.2l3,4Z" transform="translate(-11.26 -3.72)"/><path class="cls-4" d="M18.2,234.28s12.18-3,24.32,0C42.52,234.28,33.45,236.79,18.2,234.28Z" transform="translate(-11.26 -3.72)"/><path class="cls-4" d="M94.33,234.15a30.62,30.62,0,0,1,15.24,0S103.88,236,94.33,234.15Z" transform="translate(-11.26 -3.72)"/><path class="cls-13" d="M39.58,234.18c0-5.43-4.4-2.92-6.78-1.18l4.66-19.94-6.41-.33,0.27,21.45h8.25Z" transform="translate(-11.26 -3.72)"/><path class="cls-13" d="M28.11,232.82c-2.42-1.72-6.52-3.87-6.52,1.37h8.25l1.21-21.45h-6.4Z" transform="translate(-11.26 -3.72)"/><g class="cls-23"><path class="cls-13" d="M30.84,212.73H24.65l3.46,20.09c-2.42-1.72-6.52-3.87-6.52,1.37h8.25l1-17.57v-3.88Z" transform="translate(-11.26 -3.72)"/></g><path class="cls-12" d="M30,170.86l9.57,11.55-5.39.66,0,3.3a7.22,7.22,0,0,1-4-.94s0.1,3.09,4,4.35l0.71,8.91-10.29.48-1.3-27.71Z" transform="translate(-11.26 -3.72)"/><polygon class="cls-6" points="15.86 167.33 12.09 167.75 13.39 195.46 17.42 195.38 15.86 167.33"/><path class="cls-13" d="M22.11,171.63l1.24,16.5,4.37-.5-0.5-3.8s-3.74,1.18-3.15-2.18c0.38-2.18,3.25-1,2.82.45l1.9,0.33-5.2-10.81s9.24,2.13,11.31-1.65S29,168.16,22.11,171.63Z" transform="translate(-11.26 -3.72)"/><ellipse class="cls-13" cx="18.17" cy="174.12" rx="0.75" ry="1.02"/><ellipse class="cls-13" cx="20.54" cy="173.93" rx="0.75" ry="1.02"/><polygon class="cls-13" points="16.04 171.25 15.63 170.69 17.01 169.92 17.42 170.48 16.04 171.25"/><rect class="cls-13" x="31.08" y="173.67" width="0.66" height="1.44" transform="translate(-156.62 158.34) rotate(-75.8)"/><path class="cls-12" d="M45,196.81c0-1.49.37-3,1-.07,0,0,1.64-3.81.86,0.19,0,0,2.94-2.3.56,0.84,0,0,3.21-.51-1,1.32l-1.64-.7s-2.05-2.76,0-1.42A0.17,0.17,0,0,0,45,196.81Z" transform="translate(-11.26 -3.72)"/><polygon class="cls-24" points="21.91 198.13 23.65 194.76 29.01 202.9 33.27 194.52 35.37 195.39 29.18 206.7 21.91 198.13"/><polygon class="cls-24" points="13.41 209.67 26.2 209.34 23.65 194.76 13.39 195.23 13.41 209.67"/><polygon class="cls-6" points="16.78 195.07 13.39 195.23 13.41 209.67 17.42 209.67 16.78 195.07"/><polygon class="cls-13" points="20.84 195.21 19.91 196.29 20.87 197.36 21.84 206.62 23.17 207.69 24.22 206.46 21.62 197.31 22.03 195.84 20.84 195.21"/><path class="cls-12" d="M15,203.32c-0.56-1.38-1.42-2.7-.93.28,0,0-2.89-3-.73.48,0,0-3.57-1.1-.23,1,0,0-3.19.67,1.39,0.88l1.29-1.24s0.93-3.31-.49-1.33A0.17,0.17,0,0,1,15,203.32Z" transform="translate(-11.26 -3.72)"/><path class="cls-24" d="M14.27,206L16,204.44l4.92,6.06,3.77-11.55,0.49,1a6.6,6.6,0,0,1,.2,5.35l-3.71,9.25Z" transform="translate(-11.26 -3.72)"/><polygon class="cls-4" points="37.67 168.81 42.77 197.45 72.02 197.45 76.31 168.22 37.67 168.81"/><polygon class="cls-5" points="39.78 166.34 44.88 194.98 74.13 194.98 78.42 165.75 39.78 166.34"/><polygon class="cls-18" points="46.69 184.3 47.23 192.04 49.09 192.04 49.18 184.3 46.69 184.3"/><polygon class="cls-16" points="50.13 180.36 50.68 192.04 52.53 192.04 52.63 180.36 50.13 180.36"/><polygon class="cls-18" points="55.11 182.19 55.58 191.99 57.77 192.03 58.06 182.24 55.11 182.19"/><polygon class="cls-16" points="59.3 175.91 59.66 192.06 61.84 192.1 62.26 175.96 59.3 175.91"/><polygon class="cls-18" points="64.65 178.64 65.03 192 67.22 192.05 67.6 178.71 64.65 178.64"/><polygon class="cls-16" points="69.63 170.31 68.74 192.1 70.91 192.15 72.57 170.52 69.63 170.31"/><path class="cls-12" d="M110.44,185.28l0.7-11.47-8.67,1.08-5.83,10.47,3.48,0.93s-0.05,1.24,0,2.14l3.58-1.09c0.11,1.45-3.29,3.46-3.29,3.46,0.19,0.86,1.3,1.83,1.79,2.56l-1.38,4.93,1.59,3.12,4.71-3.29v-5.41A30.48,30.48,0,0,0,110.44,185.28Z" transform="translate(-11.26 -3.72)"/><path class="cls-6" d="M107.1,174.31l-3.21,26.05,3.21-2.24v-5.41a30.48,30.48,0,0,0,3.34-7.43l0.7-11.47Z" transform="translate(-11.26 -3.72)"/><rect class="cls-13" x="103.01" y="176.77" width="1.76" height="0.82" transform="matrix(0.98, -0.2, 0.2, 0.98, -45.17, 21.16)"/><polygon class="cls-13" points="94.87 173.58 95.27 172.86 96.81 173.7 96.42 174.42 94.87 173.58"/><ellipse class="cls-13" cx="91.77" cy="176.88" rx="0.64" ry="0.98"/><ellipse class="cls-13" cx="93.58" cy="177.16" rx="0.64" ry="0.98"/><polygon class="cls-12" points="88.26 213.55 89.78 228.01 90.46 228.14 90.22 213.55 88.26 213.55"/><polygon class="cls-12" points="93.3 213.55 91.78 228.01 91.1 228.14 91.41 213.55 93.3 213.55"/><polygon class="cls-6" points="93.3 213.55 91.78 228.01 91.1 228.14 91.41 213.55 93.3 213.55"/><path class="cls-16" d="M115.34,186.41c4.44-.08-0.57-5.25-0.57-5.25,2.91-1.78-2.18-5.26-2.18-5.26,3.51-1,0-4,0-4-7.19-5.25-6.91.08-6.91,0.08-7.31-2.34-7.07,2-7.07,2,1.45,5.82,6.22.92,6.22,0.92,0.81,2,3.61.77,4.66,0.23-2.68,1.6.35,3,.35,3-3.37,2.48-1.5,4.4-1.5,4.4-3.68,3.73-.28,4.26-0.28,4.26-3.4,1.54-.67,4.06-0.67,4.06-1.43,2.26.25,2.61,1.68,2.56a1.62,1.62,0,0,0,3.06.43c3.77,1.25,2.88-2.53,2.88-2.53C119.54,190.53,115.34,186.41,115.34,186.41Z" transform="translate(-11.26 -3.72)"/><path class="cls-25" d="M115.34,186.41c4.44-.08-0.57-5.25-0.57-5.25a1.73,1.73,0,0,0,.53-2.55,8.37,8.37,0,0,0-2.21-2.34,12.72,12.72,0,0,1,.42,2.7,20.19,20.19,0,0,1,0,2.77c-0.24,4-1.79,9.72-6.55,10.37l-0.12.13c-0.05,1,1.15,1.22,2.22,1.19a1.62,1.62,0,0,0,3.06.43c3.77,1.25,2.88-2.53,2.88-2.53C119.54,190.53,115.34,186.41,115.34,186.41Z" transform="translate(-11.26 -3.72)"/><path class="cls-18" d="M101.14,197l1.25,3.23L107.1,197v4.85l-1.29,6.24H99.53v-4.71s-1.93-1.89-1.48-3.63A8.72,8.72,0,0,1,101.14,197Z" transform="translate(-11.26 -3.72)"/><polygon class="cls-6" points="92.44 195.66 91.69 204.41 94.55 204.41 95.84 198.18 95.84 193.33 92.44 195.66"/><polygon class="cls-13" points="89.65 227.5 85.99 230.46 88.78 230.46 89.6 229.22 89.7 230.46 90.3 230.46 90.51 227.5 89.65 227.5"/><polygon class="cls-13" points="91.91 227.5 91.05 227.5 91.26 230.46 91.86 230.46 91.96 229.22 92.78 230.46 95.57 230.46 91.91 227.5"/><polygon class="cls-15" points="91.91 227.5 91.05 227.5 91.26 230.46 91.86 230.46 91.96 229.22 92.78 230.46 95.57 230.46 91.91 227.5"/><polygon class="cls-13" points="88.27 204.41 85.99 214.92 95.84 214.92 94.55 204.41 88.27 204.41"/><polygon class="cls-15" points="91.53 214.92 95.84 214.92 94.55 204.41 92.35 204.41 91.53 214.92"/><path class="cls-18" d="M107,197.07l0,0,5.19,9,5.66,3.51-0.65,1.81-6.33-4L107,201.72A4.15,4.15,0,0,1,107,197.07Z" transform="translate(-11.26 -3.72)"/><polygon class="cls-18" points="89.89 193.33 82.08 191.07 76.93 183.93 75.25 185.33 80.78 192.41 88.84 195.31 89.89 193.33"/><path class="cls-12" d="M87.37,186.32c-0.47-1.41-1.24-2.79-.94.22,0,0-2.69-3.16-.76.43,0,0-3.49-1.33-.29,1,0,0-3.22.46,1.33,1l1.36-1.15s1.15-3.24-.4-1.36A0.17,0.17,0,0,1,87.37,186.32Z" transform="translate(-11.26 -3.72)"/><path class="cls-12" d="M119.39,209.81c1.49,0,3,.23.11,1,0,0,3.89,1.47-.15.86,0,0,2.43,2.83-.82.6,0,0,.66,3.19-1.36-0.93l0.62-1.67s2.66-2.18,1.42-.08A0.17,0.17,0,0,0,119.39,209.81Z" transform="translate(-11.26 -3.72)"/><path class="cls-8" d="M18.65,86.06a1.34,1.34,0,1,1-.07-2.68A1.34,1.34,0,0,1,18.65,86.06Z" transform="translate(-11.26 -3.72)"/><path class="cls-8" d="M19.44,91.36a1.34,1.34,0,1,1-.51-2.63A1.34,1.34,0,0,1,19.44,91.36Z" transform="translate(-11.26 -3.72)"/><path class="cls-8" d="M21.13,96.45a1.34,1.34,0,1,1-1-2.51A1.34,1.34,0,0,1,21.13,96.45Z" transform="translate(-11.26 -3.72)"/><path class="cls-8" d="M23.7,101.14a1.34,1.34,0,1,1-1.4-2.29A1.34,1.34,0,0,1,23.7,101.14Z" transform="translate(-11.26 -3.72)"/><path class="cls-8" d="M27.12,105.26a1.34,1.34,0,1,1,0-1.86A1.33,1.33,0,0,1,27.12,105.26Z" transform="translate(-11.26 -3.72)"/><path class="cls-8" d="M31.23,108.7a1.34,1.34,0,1,1-2.14-1.62A1.34,1.34,0,0,1,31.23,108.7Z" transform="translate(-11.26 -3.72)"/><path class="cls-8" d="M35.85,111.43A1.32,1.32,0,0,1,34,112a1.3,1.3,0,0,1-.54-1.83,1.37,1.37,0,0,1,1.8-.51A1.35,1.35,0,0,1,35.85,111.43Z" transform="translate(-11.26 -3.72)"/><path class="cls-8" d="M40.79,113.5a1.34,1.34,0,0,1-2.51-1A1.34,1.34,0,0,1,40.79,113.5Z" transform="translate(-11.26 -3.72)"/><path class="cls-8" d="M49.23,115.67a30.2,30.2,0,0,0-9.41,2.66l2.77-4.23-0.58-5A30.19,30.19,0,0,0,49.23,115.67Z" transform="translate(-11.26 -3.72)"/><path class="cls-8" d="M129.33,134.63a1.31,1.31,0,1,1-1.73-2A1.31,1.31,0,1,1,129.33,134.63Z" transform="translate(-11.26 -3.72)"/><path class="cls-8" d="M132.6,138.71a1.31,1.31,0,1,1-1.6-2.07A1.31,1.31,0,1,1,132.6,138.71Z" transform="translate(-11.26 -3.72)"/><path class="cls-8" d="M135.61,143a1.31,1.31,0,1,1-1.47-2.16A1.31,1.31,0,1,1,135.61,143Z" transform="translate(-11.26 -3.72)"/><path class="cls-8" d="M138.31,147.44a1.31,1.31,0,1,1-1.31-2.26A1.31,1.31,0,1,1,138.31,147.44Z" transform="translate(-11.26 -3.72)"/><path class="cls-8" d="M140.63,152.12a1.31,1.31,0,1,1,.67-1.75A1.32,1.32,0,0,1,140.63,152.12Z" transform="translate(-11.26 -3.72)"/><path class="cls-8" d="M142.45,157a1.31,1.31,0,1,1,.86-1.67A1.32,1.32,0,0,1,142.45,157Z" transform="translate(-11.26 -3.72)"/><path class="cls-8" d="M143.6,162.11a1.35,1.35,0,0,1-1.53-1,1.36,1.36,0,0,1,1-1.52,1.28,1.28,0,0,1,1.56,1A1.29,1.29,0,0,1,143.6,162.11Z" transform="translate(-11.26 -3.72)"/><path class="cls-8" d="M143.84,167.32a1.38,1.38,0,0,1-1.3-1.31,1.37,1.37,0,0,1,1.32-1.3,1.27,1.27,0,0,1,1.33,1.31A1.26,1.26,0,0,1,143.84,167.32Z" transform="translate(-11.26 -3.72)"/><path class="cls-8" d="M142.94,172.45a1.35,1.35,0,0,1-.95-1.56,1.33,1.33,0,0,1,1.54-1,1.31,1.31,0,0,1,1,1.58A1.28,1.28,0,0,1,142.94,172.45Z" transform="translate(-11.26 -3.72)"/><path class="cls-8" d="M140.85,177.22A1.31,1.31,0,0,1,142,174.9,1.31,1.31,0,1,1,140.85,177.22Z" transform="translate(-11.26 -3.72)"/><path class="cls-8" d="M137.71,181.38a1.31,1.31,0,0,1,1.68-2A1.31,1.31,0,1,1,137.71,181.38Z" transform="translate(-11.26 -3.72)"/><path class="cls-8" d="M133.84,184.87A1.36,1.36,0,0,1,134,183a1.33,1.33,0,0,1,1.68,2A1.27,1.27,0,0,1,133.84,184.87Z" transform="translate(-11.26 -3.72)"/><path class="cls-8" d="M126.44,189.33a30.24,30.24,0,0,0,5.05-8.37l0.87,5,3.86,3.27A30.18,30.18,0,0,0,126.44,189.33Z" transform="translate(-11.26 -3.72)"/></g></g></g></svg>